<svg version="1.1" xmlns="http://www.w3.org/2000/svg" xmlns:xlink="http://www.w3.org/1999/xlink" width="924" height="940"><defs/><g><g transform="translate(-294,2) scale(1,1)"><rect fill="#C0C0C0" stroke="none" x="391" y="687" width="140.79999999999995" height="15" opacity="0.2"/></g><g transform="translate(-294,2) scale(1,1)"><rect fill="#C0C0C0" stroke="none" x="391" y="701" width="352" height="234" opacity="0.2"/></g><g transform="translate(-294,2) scale(1,1)"><rect fill="#ffffff" stroke="none" x="384" y="695" width="352" height="233"/></g><g transform="translate(-294,2) scale(1,1)"><path fill="none" stroke="#000000" d="M 384 695 L 736 695 L 736 928 L 384 928 L 384 695 Z Z" stroke-miterlimit="10"/></g><g transform="translate(-294,2) scale(1,1)"><rect fill="#ffffff" stroke="none" x="384" y="680" width="140.79999999999995" height="15"/></g><g transform="translate(-294,2) scale(1,1)"><path fill="none" stroke="#000000" d="M 384 680 L 524.8 680 L 524.8 695 L 384 695 L 384 680 Z Z" stroke-miterlimit="10"/></g><g transform="translate(-294,2) scale(1,1)"><rect fill="#ffffff" stroke="none" x="384" y="694" width="352" height="234"/></g><g transform="translate(-294,2) scale(1,1)"><path fill="none" stroke="#000000" d="M 384 694 L 736 694 L 736 928 L 384 928 L 384 694 Z Z" stroke-miterlimit="10"/></g><g transform="translate(-294,2) scale(1,1)"><g><path fill="none" stroke="none"/><text fill="#000000" stroke="none" font-family="Arial" font-size="13px" font-style="normal" font-weight="bold" text-decoration="none" x="524.23095703125" y="714.5">Azure Cloud</text></g></g><g transform="translate(-294,2) scale(1,1)"><path fill="#C0C0C0" stroke="none" d="M 415 841 L 595 841 L 595 918 L 415 918" opacity="0.2"/></g><g transform="translate(-294,2) scale(1,1)"><path fill="#C0C0C0" stroke="none" d="M 415 841 L 425 831 L 605 831 L 595 841" opacity="0.2"/></g><g transform="translate(-294,2) scale(1,1)"><path fill="#C0C0C0" stroke="none" d="M 605 831 L 595 841 L 595 918 L 605 908" opacity="0.2"/></g><g transform="translate(-294,2) scale(1,1)"><path fill="#ffffff" stroke="none" d="M 408 834 L 588 834 L 588 911 L 408 911"/></g><g transform="translate(-294,2) scale(1,1)"><path fill="#ffffff" stroke="none" d="M 408 834 L 418 824 L 598 824 L 588 834"/></g><g transform="translate(-294,2) scale(1,1)"><path fill="#ffffff" stroke="none" d="M 598 824 L 588 834 L 588 911 L 598 901"/></g><g transform="translate(-294,2) scale(1,1)"><path fill="none" stroke="#000000" d="M 408 834 L 588 834 L 588 911 L 408 911 L 408 834" stroke-miterlimit="10"/></g><g transform="translate(-294,2) scale(1,1)"><path fill="none" stroke="#000000" d="M 408 834 L 418 824 L 598 824 L 588 834 L 408 834" stroke-miterlimit="10"/></g><g transform="translate(-294,2) scale(1,1)"><path fill="none" stroke="#000000" d="M 598 824 L 588 834 L 588 911 L 598 901 L 598 824" stroke-miterlimit="10"/></g><g transform="translate(-294,2) scale(1,1)"><g><path fill="none" stroke="none"/><text fill="#000000" stroke="none" font-family="Arial" font-size="13px" font-style="normal" font-weight="bold" text-decoration="none" x="471.754150390625" y="853.5">database</text></g></g><g transform="translate(-294,2) scale(1,1)"><path fill="#C0C0C0" stroke="none" d="M 415 737 L 611 737 L 611 814 L 415 814" opacity="0.2"/></g><g transform="translate(-294,2) scale(1,1)"><path fill="#C0C0C0" stroke="none" d="M 415 737 L 425 727 L 621 727 L 611 737" opacity="0.2"/></g><g transform="translate(-294,2) scale(1,1)"><path fill="#C0C0C0" stroke="none" d="M 621 727 L 611 737 L 611 814 L 621 804" opacity="0.2"/></g><g transform="translate(-294,2) scale(1,1)"><path fill="#ffffff" stroke="none" d="M 408 730 L 604 730 L 604 807 L 408 807"/></g><g transform="translate(-294,2) scale(1,1)"><path fill="#ffffff" stroke="none" d="M 408 730 L 418 720 L 614 720 L 604 730"/></g><g transform="translate(-294,2) scale(1,1)"><path fill="#ffffff" stroke="none" d="M 614 720 L 604 730 L 604 807 L 614 797"/></g><g transform="translate(-294,2) scale(1,1)"><path fill="none" stroke="#000000" d="M 408 730 L 604 730 L 604 807 L 408 807 L 408 730" stroke-miterlimit="10"/></g><g transform="translate(-294,2) scale(1,1)"><path fill="none" stroke="#000000" d="M 408 730 L 418 720 L 614 720 L 604 730 L 408 730" stroke-miterlimit="10"/></g><g transform="translate(-294,2) scale(1,1)"><path fill="none" stroke="#000000" d="M 614 720 L 604 730 L 604 807 L 614 797 L 614 720" stroke-miterlimit="10"/></g><g transform="translate(-294,2) scale(1,1)"><g><path fill="none" stroke="none"/><text fill="#000000" stroke="none" font-family="Arial" font-size="13px" font-style="normal" font-weight="bold" text-decoration="none" x="474.70458984375" y="749.5">file storage</text></g></g><g transform="translate(-294,2) scale(1,1)"><rect fill="#C0C0C0" stroke="none" x="311" y="15" width="361.6" height="15" opacity="0.2"/></g><g transform="translate(-294,2) scale(1,1)"><rect fill="#C0C0C0" stroke="none" x="311" y="29" width="904" height="594" opacity="0.2"/></g><g transform="translate(-294,2) scale(1,1)"><rect fill="#ffffff" stroke="none" x="304" y="23" width="904" height="593"/></g><g transform="translate(-294,2) scale(1,1)"><path fill="none" stroke="#000000" d="M 304 23 L 1208 23 L 1208 616 L 304 616 L 304 23 Z Z" stroke-miterlimit="10"/></g><g transform="translate(-294,2) scale(1,1)"><rect fill="#ffffff" stroke="none" x="304" y="8" width="361.6" height="15"/></g><g transform="translate(-294,2) scale(1,1)"><path fill="none" stroke="#000000" d="M 304 8 L 665.6 8 L 665.6 23 L 304 23 L 304 8 Z Z" stroke-miterlimit="10"/></g><g transform="translate(-294,2) scale(1,1)"><rect fill="#ffffff" stroke="none" x="304" y="22" width="904" height="594"/></g><g transform="translate(-294,2) scale(1,1)"><path fill="none" stroke="#000000" d="M 304 22 L 1208 22 L 1208 616 L 304 616 L 304 22 Z Z" stroke-miterlimit="10"/></g><g transform="translate(-294,2) scale(1,1)"><g><path fill="none" stroke="none"/><text fill="#000000" stroke="none" font-family="Arial" font-size="13px" font-style="normal" font-weight="bold" text-decoration="none" x="716.2509765625" y="42.5">Google Cloud</text></g></g><g transform="translate(-294,2) scale(1,1)"><rect fill="#C0C0C0" stroke="none" x="351" y="231" width="316.79999999999995" height="15" opacity="0.2"/></g><g transform="translate(-294,2) scale(1,1)"><rect fill="#C0C0C0" stroke="none" x="351" y="245" width="792" height="298" opacity="0.2"/></g><g transform="translate(-294,2) scale(1,1)"><rect fill="#ffffff" stroke="none" x="344" y="239" width="792" height="297"/></g><g transform="translate(-294,2) scale(1,1)"><path fill="none" stroke="#000000" d="M 344 239 L 1136 239 L 1136 536 L 344 536 L 344 239 Z Z" stroke-miterlimit="10"/></g><g transform="translate(-294,2) scale(1,1)"><rect fill="#ffffff" stroke="none" x="344" y="224" width="316.79999999999995" height="15"/></g><g transform="translate(-294,2) scale(1,1)"><path fill="none" stroke="#000000" d="M 344 224 L 660.8 224 L 660.8 239 L 344 239 L 344 224 Z Z" stroke-miterlimit="10"/></g><g transform="translate(-294,2) scale(1,1)"><rect fill="#ffffff" stroke="none" x="344" y="238" width="792" height="298"/></g><g transform="translate(-294,2) scale(1,1)"><path fill="none" stroke="#000000" d="M 344 238 L 1136 238 L 1136 536 L 344 536 L 344 238 Z Z" stroke-miterlimit="10"/></g><g transform="translate(-294,2) scale(1,1)"><g><path fill="none" stroke="none"/><text fill="#000000" stroke="none" font-family="Arial" font-size="13px" font-style="normal" font-weight="bold" text-decoration="none" x="706.754150390625" y="258.5">Kubernetes</text></g></g><g transform="translate(-294,2) scale(1,1)"><path fill="#C0C0C0" stroke="none" d="M 783 329 L 1091 329 L 1091 518 L 783 518" opacity="0.2"/></g><g transform="translate(-294,2) scale(1,1)"><path fill="#C0C0C0" stroke="none" d="M 783 329 L 793 319 L 1101 319 L 1091 329" opacity="0.2"/></g><g transform="translate(-294,2) scale(1,1)"><path fill="#C0C0C0" stroke="none" d="M 1101 319 L 1091 329 L 1091 518 L 1101 508" opacity="0.2"/></g><g transform="translate(-294,2) scale(1,1)"><path fill="#ffffff" stroke="none" d="M 776 322 L 1084 322 L 1084 511 L 776 511"/></g><g transform="translate(-294,2) scale(1,1)"><path fill="#ffffff" stroke="none" d="M 776 322 L 786 312 L 1094 312 L 1084 322"/></g><g transform="translate(-294,2) scale(1,1)"><path fill="#ffffff" stroke="none" d="M 1094 312 L 1084 322 L 1084 511 L 1094 501"/></g><g transform="translate(-294,2) scale(1,1)"><path fill="none" stroke="#000000" d="M 776 322 L 1084 322 L 1084 511 L 776 511 L 776 322" stroke-miterlimit="10"/></g><g transform="translate(-294,2) scale(1,1)"><path fill="none" stroke="#000000" d="M 776 322 L 786 312 L 1094 312 L 1084 322 L 776 322" stroke-miterlimit="10"/></g><g transform="translate(-294,2) scale(1,1)"><path fill="none" stroke="#000000" d="M 1094 312 L 1084 322 L 1084 511 L 1094 501 L 1094 312" stroke-miterlimit="10"/></g><g transform="translate(-294,2) scale(1,1)"><g><path fill="none" stroke="none"/><text fill="#000000" stroke="none" font-family="Arial" font-size="13px" font-style="normal" font-weight="normal" text-decoration="none" x="912.425048828125" y="339.5">«pod»</text></g></g><g transform="translate(-294,2) scale(1,1)"><g><path fill="none" stroke="none"/><text fill="#000000" stroke="none" font-family="Arial" font-size="13px" font-style="normal" font-weight="bold" text-decoration="none" x="898.822021484375" y="354.5">Video-front</text></g></g><g transform="translate(-294,2) scale(1,1)"><path fill="#ffffff" stroke="none" d="M 376 322 L 645 322 L 645 519 L 376 519"/></g><g transform="translate(-294,2) scale(1,1)"><path fill="#ffffff" stroke="none" d="M 376 322 L 386 312 L 655 312 L 645 322"/></g><g transform="translate(-294,2) scale(1,1)"><path fill="#ffffff" stroke="none" d="M 655 312 L 645 322 L 645 519 L 655 509"/></g><g transform="translate(-294,2) scale(1,1)"><path fill="none" stroke="#000000" d="M 376 322 L 645 322 L 645 519 L 376 519 L 376 322" stroke-miterlimit="10"/></g><g transform="translate(-294,2) scale(1,1)"><path fill="none" stroke="#000000" d="M 376 322 L 386 312 L 655 312 L 645 322 L 376 322" stroke-miterlimit="10"/></g><g transform="translate(-294,2) scale(1,1)"><path fill="none" stroke="#000000" d="M 655 312 L 645 322 L 645 519 L 655 509 L 655 312" stroke-miterlimit="10"/></g><g transform="translate(-294,2) scale(1,1)"><g><path fill="none" stroke="none"/><text fill="#000000" stroke="none" font-family="Arial" font-size="13px" font-style="normal" font-weight="normal" text-decoration="none" x="492.925048828125" y="339.5">«pod»</text></g></g><g transform="translate(-294,2) scale(1,1)"><g><path fill="none" stroke="none"/><text fill="#000000" stroke="none" font-family="Arial" font-size="13px" font-style="normal" font-weight="bold" text-decoration="none" x="478.598388671875" y="354.5">Video-back</text></g></g><g transform="translate(-294,2) scale(1,1)"><rect fill="#C0C0C0" stroke="none" x="401" y="375" width="98.44091796875" height="44" opacity="0.2"/></g><g transform="translate(-294,2) scale(1,1)"><rect fill="#ffffff" stroke="none" x="394" y="368" width="98.44091796875" height="44"/></g><g transform="translate(-294,2) scale(1,1)"><path fill="none" stroke="#000000" d="M 394 368 L 492.44091796875 368 L 492.44091796875 412 L 394 412 L 394 368 Z Z" stroke-miterlimit="10"/></g><g transform="translate(-294,2) scale(1,1)"><rect fill="#ffffff" stroke="none" x="384" y="375" width="20" height="10"/></g><g transform="translate(-294,2) scale(1,1)"><path fill="none" stroke="#000000" d="M 384 375 L 404 375 L 404 385 L 384 385 L 384 375 Z Z" stroke-miterlimit="10"/></g><g transform="translate(-294,2) scale(1,1)"><rect fill="#ffffff" stroke="none" x="384" y="395" width="20" height="10"/></g><g transform="translate(-294,2) scale(1,1)"><path fill="none" stroke="#000000" d="M 384 395 L 404 395 L 404 405 L 384 405 L 384 395 Z Z" stroke-miterlimit="10"/></g><g transform="translate(-294,2) scale(1,1)"><g><path fill="none" stroke="none"/><text fill="#000000" stroke="none" font-family="Arial" font-size="13px" font-style="normal" font-weight="bold" text-decoration="none" x="427.984130859375" y="387.5">Python</text></g></g><g transform="translate(-294,2) scale(1,1)"><rect fill="#C0C0C0" stroke="none" x="521" y="375" width="117.0205078125" height="44" opacity="0.2"/></g><g transform="translate(-294,2) scale(1,1)"><rect fill="#ffffff" stroke="none" x="514" y="368" width="117.0205078125" height="44"/></g><g transform="translate(-294,2) scale(1,1)"><path fill="none" stroke="#000000" d="M 514 368 L 631.0205078125 368 L 631.0205078125 412 L 514 412 L 514 368 Z Z" stroke-miterlimit="10"/></g><g transform="translate(-294,2) scale(1,1)"><rect fill="#ffffff" stroke="none" x="504" y="375" width="20" height="10"/></g><g transform="translate(-294,2) scale(1,1)"><path fill="none" stroke="#000000" d="M 504 375 L 524 375 L 524 385 L 504 385 L 504 375 Z Z" stroke-miterlimit="10"/></g><g transform="translate(-294,2) scale(1,1)"><rect fill="#ffffff" stroke="none" x="504" y="395" width="20" height="10"/></g><g transform="translate(-294,2) scale(1,1)"><path fill="none" stroke="#000000" d="M 504 395 L 524 395 L 524 405 L 504 405 L 504 395 Z Z" stroke-miterlimit="10"/></g><g transform="translate(-294,2) scale(1,1)"><g><path fill="none" stroke="none"/><text fill="#000000" stroke="none" font-family="Arial" font-size="13px" font-style="normal" font-weight="bold" text-decoration="none" x="532.102294921875" y="387.5">Video converter</text></g></g><g transform="translate(-294,2) scale(1,1)"><rect fill="#C0C0C0" stroke="none" x="977" y="367" width="86" height="44" opacity="0.2"/></g><g transform="translate(-294,2) scale(1,1)"><rect fill="#ffffff" stroke="none" x="970" y="360" width="86" height="44"/></g><g transform="translate(-294,2) scale(1,1)"><path fill="none" stroke="#000000" d="M 970 360 L 1056 360 L 1056 404 L 970 404 L 970 360 Z Z" stroke-miterlimit="10"/></g><g transform="translate(-294,2) scale(1,1)"><rect fill="#ffffff" stroke="none" x="960" y="367" width="20" height="10"/></g><g transform="translate(-294,2) scale(1,1)"><path fill="none" stroke="#000000" d="M 960 367 L 980 367 L 980 377 L 960 377 L 960 367 Z Z" stroke-miterlimit="10"/></g><g transform="translate(-294,2) scale(1,1)"><rect fill="#ffffff" stroke="none" x="960" y="387" width="20" height="10"/></g><g transform="translate(-294,2) scale(1,1)"><path fill="none" stroke="#000000" d="M 960 387 L 980 387 L 980 397 L 960 397 L 960 387 Z Z" stroke-miterlimit="10"/></g><g transform="translate(-294,2) scale(1,1)"><g><path fill="none" stroke="none"/><text fill="#000000" stroke="none" font-family="Arial" font-size="13px" font-style="normal" font-weight="normal" text-decoration="none" x="997.0400390625" y="377.5">«exec»</text></g></g><g transform="translate(-294,2) scale(1,1)"><g><path fill="none" stroke="none"/><text fill="#000000" stroke="none" font-family="Arial" font-size="13px" font-style="normal" font-weight="bold" text-decoration="none" x="1000.655029296875" y="392.5">java 8</text></g></g><g transform="translate(-294,2) scale(1,1)"><rect fill="#C0C0C0" stroke="none" x="809" y="367" width="124.2314453125" height="44" opacity="0.2"/></g><g transform="translate(-294,2) scale(1,1)"><rect fill="#ffffff" stroke="none" x="802" y="360" width="124.2314453125" height="44"/></g><g transform="translate(-294,2) scale(1,1)"><path fill="none" stroke="#000000" d="M 802 360 L 926.2314453125 360 L 926.2314453125 404 L 802 404 L 802 360 Z Z" stroke-miterlimit="10"/></g><g transform="translate(-294,2) scale(1,1)"><rect fill="#ffffff" stroke="none" x="792" y="367" width="20" height="10"/></g><g transform="translate(-294,2) scale(1,1)"><path fill="none" stroke="#000000" d="M 792 367 L 812 367 L 812 377 L 792 377 L 792 367 Z Z" stroke-miterlimit="10"/></g><g transform="translate(-294,2) scale(1,1)"><rect fill="#ffffff" stroke="none" x="792" y="387" width="20" height="10"/></g><g transform="translate(-294,2) scale(1,1)"><path fill="none" stroke="#000000" d="M 792 387 L 812 387 L 812 397 L 792 397 L 792 387 Z Z" stroke-miterlimit="10"/></g><g transform="translate(-294,2) scale(1,1)"><g><path fill="none" stroke="none"/><text fill="#000000" stroke="none" font-family="Arial" font-size="13px" font-style="normal" font-weight="normal" text-decoration="none" x="854.662109375" y="377.5">«jar»</text></g></g><g transform="translate(-294,2) scale(1,1)"><g><path fill="none" stroke="none"/><text fill="#000000" stroke="none" font-family="Arial" font-size="13px" font-style="normal" font-weight="bold" text-decoration="none" x="820.45458984375" y="392.5">Video-dispatcher</text></g></g><g transform="translate(-294,2) scale(1,1)"><rect fill="#C0C0C0" stroke="none" x="863" y="687" width="108.79999999999995" height="15" opacity="0.2"/></g><g transform="translate(-294,2) scale(1,1)"><rect fill="#C0C0C0" stroke="none" x="863" y="701" width="272" height="234" opacity="0.2"/></g><g transform="translate(-294,2) scale(1,1)"><rect fill="#ffffff" stroke="none" x="856" y="695" width="272" height="233"/></g><g transform="translate(-294,2) scale(1,1)"><path fill="none" stroke="#000000" d="M 856 695 L 1128 695 L 1128 928 L 856 928 L 856 695 Z Z" stroke-miterlimit="10"/></g><g transform="translate(-294,2) scale(1,1)"><rect fill="#ffffff" stroke="none" x="856" y="680" width="108.79999999999995" height="15"/></g><g transform="translate(-294,2) scale(1,1)"><path fill="none" stroke="#000000" d="M 856 680 L 964.8 680 L 964.8 695 L 856 695 L 856 680 Z Z" stroke-miterlimit="10"/></g><g transform="translate(-294,2) scale(1,1)"><rect fill="#ffffff" stroke="none" x="856" y="694" width="272" height="234"/></g><g transform="translate(-294,2) scale(1,1)"><path fill="none" stroke="#000000" d="M 856 694 L 1128 694 L 1128 928 L 856 928 L 856 694 Z Z" stroke-miterlimit="10"/></g><g transform="translate(-294,2) scale(1,1)"><g><path fill="none" stroke="none"/><text fill="#000000" stroke="none" font-family="Arial" font-size="13px" font-style="normal" font-weight="bold" text-decoration="none" x="954.78369140625" y="714.5">Android APP</text></g></g><g transform="translate(-294,2) scale(1,1)"><rect fill="#C0C0C0" stroke="none" x="449" y="767" width="133.13720703125" height="44" opacity="0.2"/></g><g transform="translate(-294,2) scale(1,1)"><rect fill="#ffffff" stroke="none" x="442" y="760" width="133.13720703125" height="44"/></g><g transform="translate(-294,2) scale(1,1)"><path fill="none" stroke="#000000" d="M 442 760 L 575.13720703125 760 L 575.13720703125 804 L 442 804 L 442 760 Z Z" stroke-miterlimit="10"/></g><g transform="translate(-294,2) scale(1,1)"><rect fill="#ffffff" stroke="none" x="432" y="767" width="20" height="10"/></g><g transform="translate(-294,2) scale(1,1)"><path fill="none" stroke="#000000" d="M 432 767 L 452 767 L 452 777 L 432 777 L 432 767 Z Z" stroke-miterlimit="10"/></g><g transform="translate(-294,2) scale(1,1)"><rect fill="#ffffff" stroke="none" x="432" y="787" width="20" height="10"/></g><g transform="translate(-294,2) scale(1,1)"><path fill="none" stroke="#000000" d="M 432 787 L 452 787 L 452 797 L 432 797 L 432 787 Z Z" stroke-miterlimit="10"/></g><g transform="translate(-294,2) scale(1,1)"><g><path fill="none" stroke="none"/><text fill="#000000" stroke="none" font-family="Arial" font-size="13px" font-style="normal" font-weight="bold" text-decoration="none" x="459.7373046875" y="779.5">Azure File Storage</text></g></g><g transform="translate(-294,2) scale(1,1)"><path fill="#C0C0C0" stroke="none" d="M 903 753 L 1068 753 L 1068 910 L 903 910" opacity="0.2"/></g><g transform="translate(-294,2) scale(1,1)"><path fill="#C0C0C0" stroke="none" d="M 903 753 L 913 743 L 1078 743 L 1068 753" opacity="0.2"/></g><g transform="translate(-294,2) scale(1,1)"><path fill="#C0C0C0" stroke="none" d="M 1078 743 L 1068 753 L 1068 910 L 1078 900" opacity="0.2"/></g><g transform="translate(-294,2) scale(1,1)"><path fill="#ffffff" stroke="none" d="M 896 746 L 1061 746 L 1061 903 L 896 903"/></g><g transform="translate(-294,2) scale(1,1)"><path fill="#ffffff" stroke="none" d="M 896 746 L 906 736 L 1071 736 L 1061 746"/></g><g transform="translate(-294,2) scale(1,1)"><path fill="#ffffff" stroke="none" d="M 1071 736 L 1061 746 L 1061 903 L 1071 893"/></g><g transform="translate(-294,2) scale(1,1)"><path fill="none" stroke="#000000" d="M 896 746 L 1061 746 L 1061 903 L 896 903 L 896 746" stroke-miterlimit="10"/></g><g transform="translate(-294,2) scale(1,1)"><path fill="none" stroke="#000000" d="M 896 746 L 906 736 L 1071 736 L 1061 746 L 896 746" stroke-miterlimit="10"/></g><g transform="translate(-294,2) scale(1,1)"><path fill="none" stroke="#000000" d="M 1071 736 L 1061 746 L 1061 903 L 1071 893 L 1071 736" stroke-miterlimit="10"/></g><g transform="translate(-294,2) scale(1,1)"><g><path fill="none" stroke="none"/><text fill="#000000" stroke="none" font-family="Arial" font-size="13px" font-style="normal" font-weight="bold" text-decoration="none" x="956.595947265625" y="765.5">Android</text></g></g><g transform="translate(-294,2) scale(1,1)"><rect fill="#C0C0C0" stroke="none" x="937" y="783" width="98.44091796875" height="44" opacity="0.2"/></g><g transform="translate(-294,2) scale(1,1)"><rect fill="#ffffff" stroke="none" x="930" y="776" width="98.44091796875" height="44"/></g><g transform="translate(-294,2) scale(1,1)"><path fill="none" stroke="#000000" d="M 930 776 L 1028.44091796875 776 L 1028.44091796875 820 L 930 820 L 930 776 Z Z" stroke-miterlimit="10"/></g><g transform="translate(-294,2) scale(1,1)"><rect fill="#ffffff" stroke="none" x="920" y="783" width="20" height="10"/></g><g transform="translate(-294,2) scale(1,1)"><path fill="none" stroke="#000000" d="M 920 783 L 940 783 L 940 793 L 920 793 L 920 783 Z Z" stroke-miterlimit="10"/></g><g transform="translate(-294,2) scale(1,1)"><rect fill="#ffffff" stroke="none" x="920" y="803" width="20" height="10"/></g><g transform="translate(-294,2) scale(1,1)"><path fill="none" stroke="#000000" d="M 920 803 L 940 803 L 940 813 L 920 813 L 920 803 Z Z" stroke-miterlimit="10"/></g><g transform="translate(-294,2) scale(1,1)"><g><path fill="none" stroke="none"/><text fill="#000000" stroke="none" font-family="Arial" font-size="13px" font-style="normal" font-weight="bold" text-decoration="none" x="960.3818359375" y="795.5">vc-client</text></g></g><g transform="translate(-294,2) scale(1,1)"><rect fill="#C0C0C0" stroke="none" x="529" y="447" width="101" height="47" opacity="0.2"/></g><g transform="translate(-294,2) scale(1,1)"><rect fill="#ffffff" stroke="none" x="522" y="440" width="101" height="47"/></g><g transform="translate(-294,2) scale(1,1)"><path fill="none" stroke="#000000" d="M 522 440 L 623 440 L 623 487 L 522 487 L 522 440 Z Z" stroke-miterlimit="10"/></g><g transform="translate(-294,2) scale(1,1)"><rect fill="#ffffff" stroke="none" x="512" y="447" width="20" height="10"/></g><g transform="translate(-294,2) scale(1,1)"><path fill="none" stroke="#000000" d="M 512 447 L 532 447 L 532 457 L 512 457 L 512 447 Z Z" stroke-miterlimit="10"/></g><g transform="translate(-294,2) scale(1,1)"><rect fill="#ffffff" stroke="none" x="512" y="467" width="20" height="10"/></g><g transform="translate(-294,2) scale(1,1)"><path fill="none" stroke="#000000" d="M 512 467 L 532 467 L 532 477 L 512 477 L 512 467 Z Z" stroke-miterlimit="10"/></g><g transform="translate(-294,2) scale(1,1)"><g><path fill="none" stroke="none"/><text fill="#000000" stroke="none" font-family="Arial" font-size="13px" font-style="normal" font-weight="bold" text-decoration="none" x="545.6982421875" y="459.5">google API</text></g></g><g transform="translate(-294,2) scale(1,1)"><rect fill="#C0C0C0" stroke="none" x="809" y="439" width="117" height="55" opacity="0.2"/></g><g transform="translate(-294,2) scale(1,1)"><rect fill="#ffffff" stroke="none" x="802" y="432" width="117" height="55"/></g><g transform="translate(-294,2) scale(1,1)"><path fill="none" stroke="#000000" d="M 802 432 L 919 432 L 919 487 L 802 487 L 802 432 Z Z" stroke-miterlimit="10"/></g><g transform="translate(-294,2) scale(1,1)"><rect fill="#ffffff" stroke="none" x="792" y="439" width="20" height="10"/></g><g transform="translate(-294,2) scale(1,1)"><path fill="none" stroke="#000000" d="M 792 439 L 812 439 L 812 449 L 792 449 L 792 439 Z Z" stroke-miterlimit="10"/></g><g transform="translate(-294,2) scale(1,1)"><rect fill="#ffffff" stroke="none" x="792" y="459" width="20" height="10"/></g><g transform="translate(-294,2) scale(1,1)"><path fill="none" stroke="#000000" d="M 792 459 L 812 459 L 812 469 L 792 469 L 792 459 Z Z" stroke-miterlimit="10"/></g><g transform="translate(-294,2) scale(1,1)"><g><path fill="none" stroke="none"/><text fill="#000000" stroke="none" font-family="Arial" font-size="13px" font-style="normal" font-weight="normal" text-decoration="none" x="851.04638671875" y="449.5">«jar»</text></g></g><g transform="translate(-294,2) scale(1,1)"><g><path fill="none" stroke="none"/><text fill="#000000" stroke="none" font-family="Arial" font-size="13px" font-style="normal" font-weight="bold" text-decoration="none" x="833.6982421875" y="464.5">google API</text></g></g><g transform="translate(-294,2) scale(1,1)"><path fill="none" stroke="#000000" d="M 567 413 L 567 439" stroke-miterlimit="10" stroke-dasharray="3"/></g><g transform="translate(-294,2) scale(1,1)"><path fill="none" stroke="#000000" d="M 562.790482243984 428.83732514237585 L 567 439 L 571.209517756016 428.83732514237585" stroke-miterlimit="10"/></g><g transform="translate(-294,2) scale(1,1)"><path fill="none" stroke="#000000" d="M 858 405 L 856 431" stroke-miterlimit="10" stroke-dasharray="3"/></g><g transform="translate(-294,2) scale(1,1)"><path fill="none" stroke="#000000" d="M 852.5823230204494 420.5444041746321 L 856 431 L 860.976560141318 421.19011472239123" stroke-miterlimit="10"/></g><g transform="translate(-294,2) scale(1,1)"><path fill="#C0C0C0" stroke="none" d="M 623 81 L 883 81 L 883 205 L 623 205" opacity="0.2"/></g><g transform="translate(-294,2) scale(1,1)"><path fill="#C0C0C0" stroke="none" d="M 623 81 L 633 71 L 893 71 L 883 81" opacity="0.2"/></g><g transform="translate(-294,2) scale(1,1)"><path fill="#C0C0C0" stroke="none" d="M 893 71 L 883 81 L 883 205 L 893 195" opacity="0.2"/></g><g transform="translate(-294,2) scale(1,1)"><path fill="#ffffff" stroke="none" d="M 616 74 L 876 74 L 876 198 L 616 198"/></g><g transform="translate(-294,2) scale(1,1)"><path fill="#ffffff" stroke="none" d="M 616 74 L 626 64 L 886 64 L 876 74"/></g><g transform="translate(-294,2) scale(1,1)"><path fill="#ffffff" stroke="none" d="M 886 64 L 876 74 L 876 198 L 886 188"/></g><g transform="translate(-294,2) scale(1,1)"><path fill="none" stroke="#000000" d="M 616 74 L 876 74 L 876 198 L 616 198 L 616 74" stroke-miterlimit="10"/></g><g transform="translate(-294,2) scale(1,1)"><path fill="none" stroke="#000000" d="M 616 74 L 626 64 L 886 64 L 876 74 L 616 74" stroke-miterlimit="10"/></g><g transform="translate(-294,2) scale(1,1)"><path fill="none" stroke="#000000" d="M 886 64 L 876 74 L 876 198 L 886 188 L 886 64" stroke-miterlimit="10"/></g><g transform="translate(-294,2) scale(1,1)"><g><path fill="none" stroke="none"/><text fill="#000000" stroke="none" font-family="Arial" font-size="13px" font-style="normal" font-weight="bold" text-decoration="none" x="719.77001953125" y="93.5">PUBSUB</text></g></g><g transform="translate(-294,2) scale(1,1)"><rect fill="#C0C0C0" stroke="none" x="705" y="135" width="119.40087890625" height="44" opacity="0.2"/></g><g transform="translate(-294,2) scale(1,1)"><rect fill="#ffffff" stroke="none" x="698" y="128" width="119.40087890625" height="44"/></g><g transform="translate(-294,2) scale(1,1)"><path fill="none" stroke="#000000" d="M 698 128 L 817.40087890625 128 L 817.40087890625 172 L 698 172 L 698 128 Z Z" stroke-miterlimit="10"/></g><g transform="translate(-294,2) scale(1,1)"><rect fill="#ffffff" stroke="none" x="688" y="135" width="20" height="10"/></g><g transform="translate(-294,2) scale(1,1)"><path fill="none" stroke="#000000" d="M 688 135 L 708 135 L 708 145 L 688 145 L 688 135 Z Z" stroke-miterlimit="10"/></g><g transform="translate(-294,2) scale(1,1)"><rect fill="#ffffff" stroke="none" x="688" y="155" width="20" height="10"/></g><g transform="translate(-294,2) scale(1,1)"><path fill="none" stroke="#000000" d="M 688 155 L 708 155 L 708 165 L 688 165 L 688 155 Z Z" stroke-miterlimit="10"/></g><g transform="translate(-294,2) scale(1,1)"><g><path fill="none" stroke="none"/><text fill="#000000" stroke="none" font-family="Arial" font-size="13px" font-style="normal" font-weight="bold" text-decoration="none" x="716.080078125" y="147.5">Pubsub channel</text></g></g><g transform="translate(-294,2) scale(1,1)"><g><path fill="none" stroke="none"/><text fill="#000000" stroke="none" font-family="Arial" font-size="13px" font-style="normal" font-weight="normal" text-decoration="none" x="720.4345703125" y="162.5">(from PubSub)</text></g></g><g transform="translate(-294,2) scale(1,1)"><path fill="none" stroke="#000000" d="M 603 311 L 694 200" stroke-miterlimit="10"/></g><g transform="translate(-294,2) scale(1,1)"><path fill="none" stroke="#000000" d="M 869 311 L 796 200" stroke-miterlimit="10"/></g><g transform="translate(-294,2) scale(1,1)"><path fill="none" stroke="#000000" d="M 974 735 L 947 513" stroke-miterlimit="10"/></g><g transform="translate(-294,2) scale(1,1)"><g><path fill="none" stroke="none"/><text fill="#000000" stroke="none" font-family="Arial" font-size="13px" font-style="normal" font-weight="normal" text-decoration="none" x="967.5" y="643.5">+https &amp;&amp; websocket</text></g></g><g transform="translate(-294,2) scale(1,1)"><rect fill="#C0C0C0" stroke="none" x="441" y="863" width="98.44091796875" height="47" opacity="0.2"/></g><g transform="translate(-294,2) scale(1,1)"><rect fill="#ffffff" stroke="none" x="434" y="856" width="98.44091796875" height="47"/></g><g transform="translate(-294,2) scale(1,1)"><path fill="none" stroke="#000000" d="M 434 856 L 532.44091796875 856 L 532.44091796875 903 L 434 903 L 434 856 Z Z" stroke-miterlimit="10"/></g><g transform="translate(-294,2) scale(1,1)"><rect fill="#ffffff" stroke="none" x="424" y="863" width="20" height="10"/></g><g transform="translate(-294,2) scale(1,1)"><path fill="none" stroke="#000000" d="M 424 863 L 444 863 L 444 873 L 424 873 L 424 863 Z Z" stroke-miterlimit="10"/></g><g transform="translate(-294,2) scale(1,1)"><rect fill="#ffffff" stroke="none" x="424" y="883" width="20" height="10"/></g><g transform="translate(-294,2) scale(1,1)"><path fill="none" stroke="#000000" d="M 424 883 L 444 883 L 444 893 L 424 893 L 424 883 Z Z" stroke-miterlimit="10"/></g><g transform="translate(-294,2) scale(1,1)"><g><path fill="none" stroke="none"/><text fill="#000000" stroke="none" font-family="Arial" font-size="13px" font-style="normal" font-weight="bold" text-decoration="none" x="459.31640625" y="875.5">MongoDB</text></g></g><g transform="translate(-294,2) scale(1,1)"><path fill="none" stroke="#000000" d="M 512 719 L 514 521" stroke-miterlimit="10"/></g><g transform="translate(-294,2) scale(1,1)"><path fill="none" stroke="#000000" d="M 565 719 L 813 513" stroke-miterlimit="10"/></g><g transform="translate(-294,2) scale(1,1)"><rect fill="#C0C0C0" stroke="none" x="409" y="447" width="101" height="55" opacity="0.2"/></g><g transform="translate(-294,2) scale(1,1)"><rect fill="#ffffff" stroke="none" x="402" y="440" width="101" height="55"/></g><g transform="translate(-294,2) scale(1,1)"><path fill="none" stroke="#000000" d="M 402 440 L 503 440 L 503 495 L 402 495 L 402 440 Z Z" stroke-miterlimit="10"/></g><g transform="translate(-294,2) scale(1,1)"><rect fill="#ffffff" stroke="none" x="392" y="447" width="20" height="10"/></g><g transform="translate(-294,2) scale(1,1)"><path fill="none" stroke="#000000" d="M 392 447 L 412 447 L 412 457 L 392 457 L 392 447 Z Z" stroke-miterlimit="10"/></g><g transform="translate(-294,2) scale(1,1)"><rect fill="#ffffff" stroke="none" x="392" y="467" width="20" height="10"/></g><g transform="translate(-294,2) scale(1,1)"><path fill="none" stroke="#000000" d="M 392 467 L 412 467 L 412 477 L 392 477 L 392 467 Z Z" stroke-miterlimit="10"/></g><g transform="translate(-294,2) scale(1,1)"><g><path fill="none" stroke="none"/><text fill="#000000" stroke="none" font-family="Arial" font-size="13px" font-style="normal" font-weight="bold" text-decoration="none" x="428.957763671875" y="459.5">azure API</text></g></g><g transform="translate(-294,2) scale(1,1)"><rect fill="#C0C0C0" stroke="none" x="961" y="439" width="101" height="55" opacity="0.2"/></g><g transform="translate(-294,2) scale(1,1)"><rect fill="#ffffff" stroke="none" x="954" y="432" width="101" height="55"/></g><g transform="translate(-294,2) scale(1,1)"><path fill="none" stroke="#000000" d="M 954 432 L 1055 432 L 1055 487 L 954 487 L 954 432 Z Z" stroke-miterlimit="10"/></g><g transform="translate(-294,2) scale(1,1)"><rect fill="#ffffff" stroke="none" x="944" y="439" width="20" height="10"/></g><g transform="translate(-294,2) scale(1,1)"><path fill="none" stroke="#000000" d="M 944 439 L 964 439 L 964 449 L 944 449 L 944 439 Z Z" stroke-miterlimit="10"/></g><g transform="translate(-294,2) scale(1,1)"><rect fill="#ffffff" stroke="none" x="944" y="459" width="20" height="10"/></g><g transform="translate(-294,2) scale(1,1)"><path fill="none" stroke="#000000" d="M 944 459 L 964 459 L 964 469 L 944 469 L 944 459 Z Z" stroke-miterlimit="10"/></g><g transform="translate(-294,2) scale(1,1)"><g><path fill="none" stroke="none"/><text fill="#000000" stroke="none" font-family="Arial" font-size="13px" font-style="normal" font-weight="bold" text-decoration="none" x="980.957763671875" y="451.5">azure API</text></g></g><g transform="translate(-294,2) scale(1,1)"><path fill="none" stroke="#000000" d="M 901 405 L 948 431" stroke-miterlimit="10" stroke-dasharray="3"/></g><g transform="translate(-294,2) scale(1,1)"><path fill="none" stroke="#000000" d="M 937.0696485416926 429.7641128700899 L 948 431 L 941.1449785334192 422.3971701927379" stroke-miterlimit="10"/></g><g transform="translate(-294,2) scale(1,1)"><path fill="none" stroke="#000000" d="M 531 413 L 491 439" stroke-miterlimit="10" stroke-dasharray="3"/></g><g transform="translate(-294,2) scale(1,1)"><path fill="none" stroke="#000000" d="M 497.2266917202607 429.9320173014701 L 491 439 L 501.81496799756724 436.99090388194173" stroke-miterlimit="10"/></g><g transform="translate(-294,2) scale(1,1)"><path fill="none" stroke="#000000" d="M 503 390 L 493 390" stroke-miterlimit="10" stroke-dasharray="3"/></g><g transform="translate(-294,2) scale(1,1)"><path fill="none" stroke="#000000" d="M 503.16267485762415 385.790482243984 L 493 390 L 503.16267485762415 394.209517756016" stroke-miterlimit="10"/></g><g transform="translate(-294,2) scale(1,1)"><path fill="none" stroke="#000000" d="M 927 382 L 959 382" stroke-miterlimit="10" stroke-dasharray="3"/></g><g transform="translate(-294,2) scale(1,1)"><path fill="none" stroke="#000000" d="M 948.8373251423759 386.209517756016 L 959 382 L 948.8373251423758 377.790482243984" stroke-miterlimit="10"/></g></g></svg>